<?xml version="1.0" encoding="UTF-8" standalone="no"?>
<!DOCTYPE svg PUBLIC "-//W3C//DTD SVG 1.1//EN" "http://www.w3.org/Graphics/SVG/1.1/DTD/svg11.dtd">
<svg width="100%" height="100%" viewBox="0 0 743 458" version="1.1" xmlns="http://www.w3.org/2000/svg" xmlns:xlink="http://www.w3.org/1999/xlink" xml:space="preserve" xmlns:serif="http://www.serif.com/" style="fill-rule:evenodd;clip-rule:evenodd;stroke-linejoin:round;stroke-miterlimit:2;">
    <g id="ArtBoard1" transform="matrix(0.840461,0,0,0.844409,-74.3156,-195.525)">
        <rect x="88.422" y="231.552" width="882.952" height="541.985" style="fill:none;"/>
        <g transform="matrix(1.18982,0,0,1.18426,-385.61,-155.522)">
            <g transform="matrix(260,0,0,260,517.081,536.472)">
                <path d="M0.062,-0L0.062,-0.7L0.155,-0.7L0.294,-0.273L0.433,-0.7L0.526,-0.7L0.526,-0L0.433,-0L0.433,-0.416L0.34,-0.131L0.248,-0.131L0.155,-0.416L0.155,-0L0.062,-0Z" style="fill:rgb(122,236,253);fill-rule:nonzero;"/>
            </g>
            <g transform="matrix(260,0,0,260,667.361,536.472)">
                <path d="M0.04,-0.634L0.04,-0.728L0.134,-0.75L0.134,-0.656L0.04,-0.634ZM0.042,-0L0.042,-0.478L0.136,-0.5L0.136,-0L0.042,-0Z" style="fill:rgb(122,236,253);fill-rule:nonzero;"/>
            </g>
            <g transform="matrix(260,0,0,260,705.321,536.472)">
                <path d="M0.054,-0L0.054,-0.5L0.263,-0.5C0.282,-0.5 0.299,-0.493 0.314,-0.479C0.329,-0.465 0.336,-0.448 0.336,-0.428L0.336,-0L0.242,-0L0.242,-0.37C0.242,-0.381 0.238,-0.389 0.231,-0.396C0.224,-0.403 0.215,-0.406 0.206,-0.406L0.148,-0.406L0.148,-0L0.054,-0Z" style="fill:rgb(122,236,253);fill-rule:nonzero;"/>
            </g>
            <g transform="matrix(260,0,0,260,798.921,536.472)">
                <path d="M0.04,-0L0.04,-0.728L0.134,-0.749L0.134,-0.5L0.253,-0.5L0.231,-0.406L0.134,-0.406L0.134,-0L0.04,-0Z" style="fill:rgb(122,236,253);fill-rule:nonzero;"/>
            </g>
            <g transform="matrix(260,0,0,260,387.341,751.737)">
                <path d="M0.132,-0C0.112,-0 0.095,-0.007 0.081,-0.021C0.067,-0.035 0.06,-0.052 0.06,-0.072L0.06,-0.227L0.153,-0.206L0.153,-0.129C0.153,-0.119 0.157,-0.111 0.164,-0.103C0.171,-0.097 0.179,-0.093 0.188,-0.093L0.302,-0.093C0.312,-0.093 0.321,-0.097 0.328,-0.103C0.335,-0.111 0.338,-0.119 0.338,-0.129L0.338,-0.305C0.338,-0.315 0.335,-0.324 0.328,-0.331C0.321,-0.338 0.312,-0.341 0.302,-0.341L0.132,-0.341C0.112,-0.341 0.095,-0.348 0.081,-0.362C0.067,-0.376 0.06,-0.393 0.06,-0.413L0.06,-0.628C0.06,-0.648 0.067,-0.665 0.081,-0.679C0.095,-0.693 0.112,-0.7 0.132,-0.7L0.359,-0.7C0.379,-0.7 0.396,-0.693 0.41,-0.679C0.424,-0.665 0.431,-0.648 0.431,-0.628L0.431,-0.52L0.338,-0.542L0.338,-0.571C0.338,-0.581 0.335,-0.59 0.328,-0.597C0.321,-0.604 0.312,-0.607 0.302,-0.607L0.188,-0.607C0.179,-0.607 0.171,-0.604 0.164,-0.597C0.157,-0.59 0.153,-0.581 0.153,-0.571L0.153,-0.47C0.153,-0.46 0.157,-0.452 0.164,-0.445C0.171,-0.438 0.179,-0.434 0.188,-0.434L0.359,-0.434C0.379,-0.434 0.396,-0.427 0.41,-0.413C0.424,-0.399 0.431,-0.382 0.431,-0.362L0.431,-0.072C0.431,-0.052 0.424,-0.035 0.41,-0.021C0.396,-0.007 0.379,-0 0.359,-0L0.132,-0Z" style="fill:rgb(122,236,253);fill-rule:nonzero;"/>
            </g>
            <g transform="matrix(260,0,0,260,504.601,751.737)">
                <path d="M0.04,-0L0.04,-0.729L0.134,-0.75L0.134,-0.5L0.249,-0.5C0.269,-0.5 0.286,-0.493 0.3,-0.478C0.314,-0.464 0.321,-0.447 0.321,-0.427L0.321,-0L0.227,-0L0.227,-0.37C0.227,-0.38 0.224,-0.389 0.217,-0.396C0.21,-0.403 0.201,-0.406 0.191,-0.406L0.134,-0.406L0.134,-0L0.04,-0Z" style="fill:rgb(122,236,253);fill-rule:nonzero;"/>
            </g>
            <g transform="matrix(260,0,0,260,590.661,751.737)">
                <path d="M0.121,-0C0.1,-0 0.083,-0.007 0.069,-0.021C0.055,-0.036 0.048,-0.053 0.048,-0.073L0.048,-0.427C0.048,-0.447 0.055,-0.464 0.069,-0.478C0.083,-0.493 0.1,-0.5 0.121,-0.5L0.257,-0.5C0.277,-0.5 0.294,-0.493 0.308,-0.478C0.322,-0.464 0.329,-0.447 0.329,-0.427L0.329,-0.073C0.329,-0.053 0.322,-0.036 0.308,-0.021C0.294,-0.007 0.277,-0 0.257,-0L0.121,-0ZM0.178,-0.094L0.199,-0.094C0.209,-0.094 0.218,-0.098 0.225,-0.105C0.232,-0.112 0.236,-0.12 0.236,-0.13L0.236,-0.37C0.236,-0.38 0.232,-0.389 0.225,-0.396C0.218,-0.403 0.209,-0.406 0.199,-0.406L0.178,-0.406C0.168,-0.406 0.16,-0.403 0.153,-0.396C0.146,-0.389 0.142,-0.38 0.142,-0.37L0.142,-0.13C0.142,-0.12 0.146,-0.112 0.153,-0.105C0.16,-0.098 0.168,-0.094 0.178,-0.094Z" style="fill:rgb(122,236,253);fill-rule:nonzero;"/>
            </g>
            <g transform="matrix(260,0,0,260,681.661,751.737)">
                <path d="M0.113,-0C0.092,-0 0.075,-0.007 0.061,-0.021C0.047,-0.036 0.04,-0.053 0.04,-0.073L0.04,-0.427C0.04,-0.447 0.047,-0.464 0.061,-0.478C0.075,-0.493 0.092,-0.5 0.113,-0.5L0.249,-0.5C0.269,-0.5 0.286,-0.493 0.301,-0.478C0.315,-0.464 0.322,-0.447 0.322,-0.427L0.322,-0.318L0.228,-0.318L0.228,-0.37C0.228,-0.38 0.224,-0.389 0.217,-0.396C0.21,-0.403 0.201,-0.406 0.191,-0.406L0.17,-0.406C0.16,-0.406 0.152,-0.403 0.145,-0.396C0.138,-0.389 0.134,-0.38 0.134,-0.37L0.134,-0.13C0.134,-0.12 0.138,-0.112 0.145,-0.105C0.152,-0.098 0.16,-0.094 0.17,-0.094L0.191,-0.094C0.201,-0.094 0.21,-0.098 0.217,-0.105C0.224,-0.112 0.228,-0.12 0.228,-0.13L0.228,-0.182L0.322,-0.182L0.322,-0.073C0.322,-0.053 0.315,-0.036 0.301,-0.021C0.286,-0.007 0.269,-0 0.249,-0L0.113,-0Z" style="fill:rgb(122,236,253);fill-rule:nonzero;"/>
            </g>
            <g transform="matrix(260,0,0,260,773.181,751.737)">
                <path d="M0.04,-0L0.04,-0.729L0.134,-0.751L0.134,-0.25L0.228,-0.5L0.322,-0.5L0.228,-0.25L0.322,-0L0.228,-0L0.181,-0.126L0.134,-0L0.04,-0Z" style="fill:rgb(122,236,253);fill-rule:nonzero;"/>
            </g>
        </g>
        <g transform="matrix(0.925747,0,0,0.921419,592.004,250.762)">
            <path d="M119.816,560.17C119.816,560.17 339.425,277.558 404.303,194.067C407.426,190.049 407.883,184.567 405.471,180.087C403.058,175.607 398.229,172.972 393.156,173.367C369.97,175.174 337.97,177.668 316.945,179.306C312.409,179.66 308.024,177.588 305.416,173.86C302.807,170.132 302.365,165.303 304.252,161.163C327.074,111.084 385.212,-16.487 385.212,-16.487C385.212,-16.487 219.995,-3.872 178.596,-0.712C173.04,-0.287 168.39,3.669 167.081,9.085C157.458,48.913 118.909,208.464 106.025,261.788C105.051,265.819 106.081,270.071 108.792,273.209C111.503,276.347 115.561,277.984 119.69,277.606C135.375,276.169 158.07,274.09 173.794,272.65C177.938,272.27 182.01,273.921 184.721,277.08C187.431,280.239 188.443,284.515 187.438,288.554C171.837,351.216 119.816,560.17 119.816,560.17Z" style="fill:rgb(218,252,124);fill-rule:nonzero;"/>
        </g>
    </g>
</svg>
